<?xml version="1.0" encoding="UTF-8" ?>
<!DOCTYPE svg PUBLIC "-//W3C//DTD SVG 1.1//EN" "http://www.w3.org/Graphics/SVG/1.1/DTD/svg11.dtd">
<svg width="593pt" height="406pt" viewBox="0 0 593 406" version="1.1" xmlns="http://www.w3.org/2000/svg">
<g id="#414951ff">
</g>
<g id="#464d55ff">
</g>
<g id="#4b5259ff">
</g>
<g id="#50575fff">
</g>
<g id="#555c64ff">
</g>
<g id="#5a6169ff">
</g>
<g id="#3d444dff">
</g>
<g id="#ffffffff">
<path fill="#ffffff" opacity="1.00" d=" M 202.76 128.77 C 210.72 121.96 221.74 119.65 231.95 121.12 C 246.44 123.26 259.49 133.73 264.32 147.62 C 266.44 153.14 266.11 159.18 265.91 164.99 C 264.54 178.27 255.46 189.85 243.99 196.19 C 243.92 202.24 243.89 208.30 244.02 214.35 C 252.91 211.22 260.95 206.19 269.70 202.73 C 277.03 198.83 284.84 195.96 292.14 192.00 C 293.05 193.51 294.13 195.08 293.96 196.94 C 294.05 213.53 293.73 230.13 294.11 246.72 C 293.81 258.16 293.98 269.61 293.99 281.05 C 293.98 283.17 293.66 285.27 293.23 287.34 C 276.77 279.87 260.56 271.88 244.02 264.59 C 243.83 270.58 244.16 276.59 243.67 282.57 C 223.86 283.06 204.04 282.55 184.23 282.82 C 167.61 282.58 150.97 283.04 134.34 282.56 C 133.77 253.79 134.34 224.98 134.06 196.20 C 128.62 193.14 123.16 189.64 119.70 184.30 C 111.31 173.43 109.21 158.12 114.46 145.43 C 116.71 139.56 120.95 134.74 125.25 130.27 C 131.02 126.29 137.29 122.75 144.24 121.37 C 152.36 120.33 160.94 120.88 168.32 124.71 C 177.77 129.12 184.50 137.71 188.93 146.93 C 190.51 144.11 191.90 141.19 193.41 138.33 C 196.27 134.90 199.12 131.41 202.76 128.77 M 147.32 132.27 C 139.53 133.74 131.75 137.63 127.57 144.63 C 125.44 148.81 122.80 153.11 122.91 157.97 C 122.92 161.64 122.53 165.49 124.06 168.95 C 126.05 173.63 128.13 178.56 132.26 181.77 C 137.23 186.26 143.85 188.04 150.37 188.71 C 159.26 188.88 168.29 184.79 173.66 177.61 C 176.71 172.98 179.23 167.68 179.20 162.02 C 179.96 152.29 174.95 142.47 167.01 136.94 C 161.11 133.61 154.18 131.05 147.32 132.27 M 226.31 132.42 C 220.15 132.46 214.14 134.53 209.19 138.16 C 203.95 141.96 200.67 147.99 199.09 154.16 C 198.65 159.58 198.00 165.41 200.39 170.50 C 203.16 179.02 210.77 185.44 219.33 187.72 C 227.03 189.24 235.22 188.06 242.02 184.07 C 248.93 179.35 253.95 171.56 254.35 163.09 C 255.25 152.57 250.26 141.39 241.00 135.99 C 236.66 133.17 231.38 132.44 226.31 132.42 M 180.26 187.24 C 177.65 190.15 174.28 192.21 171.49 194.93 C 183.16 195.09 194.84 195.06 206.52 194.95 C 198.98 189.34 192.07 182.48 188.73 173.51 C 186.28 178.29 184.11 183.37 180.26 187.24 Z" />
<path fill="#ffffff" opacity="1.00" d=" M 146.39 145.43 C 150.53 144.79 155.52 144.11 159.03 146.97 C 162.56 149.46 165.69 152.90 166.76 157.19 C 167.62 162.46 165.90 168.25 161.79 171.79 C 157.81 176.59 150.58 176.97 145.10 174.85 C 139.49 173.01 136.40 167.22 135.28 161.76 C 134.74 154.64 139.65 147.64 146.39 145.43 Z" />
<path fill="#ffffff" opacity="1.00" d=" M 221.36 145.42 C 225.86 144.63 230.99 144.38 234.96 147.08 C 241.46 151.36 244.66 160.59 240.58 167.59 C 237.52 171.26 234.09 175.51 228.94 175.89 C 219.46 177.71 209.88 168.50 211.01 159.00 C 211.19 152.84 216.35 148.21 221.36 145.42 Z" />
<path fill="#ffffff" opacity="1.00" d=" M 335.38 169.42 C 336.51 168.71 337.70 168.07 338.85 167.37 C 339.73 168.47 341.33 169.34 341.19 170.96 C 341.45 178.72 341.66 186.49 341.93 194.26 C 340.02 194.28 338.12 194.54 336.23 194.79 C 336.05 192.06 335.93 189.33 335.63 186.62 C 333.79 189.77 332.70 193.28 330.96 196.48 C 329.31 192.88 327.87 189.19 326.18 185.61 C 325.96 188.47 325.97 191.35 325.93 194.23 C 324.03 194.23 322.15 194.15 320.27 194.02 C 320.23 185.73 320.27 177.44 320.25 169.16 C 321.96 168.88 323.68 168.59 325.40 168.36 C 327.34 172.69 328.97 177.14 330.89 181.48 C 332.56 177.53 333.45 173.25 335.38 169.42 Z" />
<path fill="#ffffff" opacity="1.00" d=" M 368.13 169.17 C 370.01 168.77 371.90 168.39 373.80 168.05 C 375.69 172.83 376.40 177.99 378.27 182.78 C 380.14 178.01 380.99 172.93 382.43 168.03 C 384.32 168.46 386.19 168.97 388.08 169.44 C 386.32 177.50 383.89 185.40 382.21 193.48 C 379.86 193.83 377.48 193.94 375.10 194.01 C 372.80 185.72 370.36 177.48 368.13 169.17 Z" />
<path fill="#ffffff" opacity="1.00" d=" M 398.76 169.09 C 403.89 168.72 409.04 168.62 414.17 168.27 C 414.44 170.22 414.28 172.19 414.17 174.15 C 411.48 174.24 408.80 174.37 406.12 174.45 C 406.07 175.96 406.01 177.47 405.97 178.98 C 408.32 178.75 410.66 178.47 413.00 178.16 C 413.42 179.99 413.79 181.84 413.97 183.72 C 411.27 184.25 408.56 184.66 405.83 184.99 C 405.79 186.27 405.77 187.54 405.74 188.82 C 408.88 188.25 412.02 187.75 415.16 187.20 C 415.49 189.09 415.81 190.98 416.11 192.89 C 411.81 193.77 407.48 194.48 403.15 195.20 C 401.95 193.85 400.56 192.59 399.84 190.91 C 399.47 185.99 400.55 181.04 399.78 176.14 C 399.14 173.84 398.53 171.50 398.76 169.09 Z" />
<path fill="#ffffff" opacity="1.00" d=" M 418.03 169.10 C 419.95 168.78 421.88 168.46 423.82 168.18 C 424.33 174.70 423.52 181.22 423.77 187.75 C 426.22 187.37 428.68 187.05 431.14 186.77 C 431.33 188.64 431.52 190.52 431.71 192.40 C 427.92 193.04 424.18 194.11 420.33 194.34 C 419.24 193.47 417.85 192.56 418.06 190.95 C 417.88 183.67 418.01 176.38 418.03 169.10 Z" />
<path fill="#ffffff" opacity="1.00" d=" M 434.51 168.25 C 436.41 168.45 438.30 168.71 440.21 168.91 C 440.18 177.22 440.51 185.55 440.07 193.85 C 438.52 195.45 436.09 193.78 434.21 193.75 C 434.42 185.25 434.54 176.76 434.51 168.25 Z" />
<path fill="#ffffff" opacity="1.00" d=" M 444.21 177.33 C 446.05 172.68 450.51 169.93 454.75 167.73 C 456.00 168.45 457.25 169.17 458.53 169.87 C 458.87 172.40 458.76 174.96 458.57 177.50 C 455.49 177.25 451.35 174.91 449.59 178.71 C 453.40 179.70 457.77 179.56 461.06 181.97 C 463.71 186.97 459.65 193.40 454.36 194.37 C 450.02 195.55 445.65 193.72 442.22 191.13 C 442.87 189.48 443.48 187.82 444.11 186.16 C 447.78 188.53 453.78 190.63 456.47 185.79 C 453.00 185.16 449.38 185.11 446.06 183.85 C 443.99 182.58 443.08 179.53 444.21 177.33 Z" />
<path fill="#ffffff" opacity="1.00" d=" M 470.29 168.74 C 472.69 168.68 475.10 168.55 477.51 168.45 C 477.56 170.28 477.65 172.11 477.69 173.95 C 475.91 174.23 474.14 174.52 472.38 174.81 C 472.16 181.15 472.37 187.49 472.14 193.83 C 470.22 193.79 468.31 193.75 466.40 193.73 C 466.54 187.59 466.52 181.44 466.39 175.30 C 464.90 175.17 463.42 175.02 461.95 174.87 C 461.75 173.04 461.57 171.21 461.33 169.39 C 464.31 169.21 467.30 168.96 470.29 168.74 Z" />
<path fill="#ffffff" opacity="1.00" d=" M 477.86 182.98 C 476.47 176.07 482.25 170.53 488.10 168.13 C 489.85 168.05 491.19 169.57 492.72 170.27 C 492.72 172.60 492.75 174.92 492.76 177.25 C 489.56 177.15 485.56 175.10 483.52 178.68 C 487.29 179.78 491.81 179.46 494.95 182.12 C 497.34 185.35 494.60 189.20 493.26 192.26 C 490.39 193.55 487.38 195.14 484.12 194.64 C 481.14 194.44 478.62 192.72 476.21 191.15 C 476.86 189.49 477.48 187.82 478.12 186.16 C 481.88 188.63 487.35 190.32 490.57 186.04 C 486.31 185.12 481.88 184.76 477.86 182.98 Z" />
<path fill="#ffffff" opacity="1.00" d=" M 354.35 169.29 C 357.40 167.75 360.75 169.16 363.58 170.51 C 368.57 173.63 368.41 180.69 366.54 185.59 C 364.37 192.24 355.94 196.06 349.53 193.33 C 346.81 191.71 344.63 189.02 344.23 185.82 C 343.53 178.92 347.76 171.68 354.35 169.29 M 355.37 175.27 C 352.14 176.92 349.74 180.29 349.73 183.98 C 350.09 185.75 351.04 187.97 353.10 188.19 C 358.79 188.87 363.65 182.14 361.16 176.93 C 360.44 174.39 357.36 174.06 355.37 175.27 Z" />
</g>
<g id="#464d54ff">
</g>
<g id="#4a5058ff">
</g>
<g id="#feffffff">
<path fill="#feffff" opacity="1.00" d=" M 390.25 168.04 C 392.08 168.36 393.90 168.70 395.74 169.00 C 395.72 177.39 395.85 185.78 395.66 194.17 C 393.69 194.23 391.72 194.14 389.76 194.15 C 389.95 185.45 389.84 176.73 390.25 168.04 Z" />
<path fill="#feffff" opacity="1.00" d=" M 383.43 224.10 C 383.94 224.21 384.97 224.44 385.48 224.56 C 385.54 228.34 385.42 232.13 385.51 235.91 C 385.33 237.90 387.94 238.26 389.05 239.40 C 387.21 239.92 385.30 239.99 383.41 239.97 C 383.54 234.68 383.53 229.39 383.43 224.10 Z" />
<path fill="#feffff" opacity="1.00" d=" M 405.21 224.10 C 406.28 224.34 407.34 224.64 408.39 224.99 C 408.59 230.13 408.66 235.31 408.19 240.44 C 404.80 237.96 407.22 232.62 406.60 228.94 C 405.65 232.52 405.10 236.20 404.55 239.86 C 404.02 239.86 402.97 239.86 402.44 239.85 C 402.09 236.19 401.65 232.51 400.69 228.95 C 400.70 232.78 400.90 236.63 400.39 240.45 C 399.95 240.05 399.06 239.27 398.62 238.88 C 398.31 234.12 398.55 229.35 398.58 224.59 C 399.49 224.57 401.30 224.52 402.20 224.50 C 402.62 227.10 402.97 229.72 403.47 232.31 C 404.22 229.61 404.63 226.84 405.21 224.10 Z" />
<path fill="#feffff" opacity="1.00" d=" M 459.53 224.65 C 460.07 224.53 461.16 224.29 461.70 224.17 C 461.78 229.44 461.75 234.71 461.75 239.98 C 461.16 239.94 459.99 239.86 459.41 239.82 C 459.53 234.76 459.45 229.70 459.53 224.65 Z" />
<path fill="#feffff" opacity="1.00" d=" M 473.38 225.19 C 475.92 224.21 478.65 224.49 481.31 224.60 C 476.91 228.54 479.34 234.84 478.76 239.98 C 478.17 239.94 476.99 239.86 476.39 239.81 C 476.31 235.67 477.01 231.38 476.10 227.33 C 475.42 226.80 474.06 225.72 473.38 225.19 Z" />
</g>
<g id="#474e56ff">
</g>
<g id="#4f565eff">
</g>
<g id="#fdffffff">
<path fill="#fdffff" opacity="1.00" d=" M 328.68 225.64 C 330.45 222.53 334.88 224.89 334.47 228.14 C 333.15 227.70 331.84 227.23 330.54 226.74 C 331.00 230.55 329.04 235.37 331.93 238.43 C 332.61 235.45 332.07 232.47 330.79 229.73 C 331.65 229.75 333.35 229.79 334.21 229.80 C 334.20 232.78 334.55 235.81 333.95 238.76 C 332.71 241.21 328.68 240.33 328.40 237.66 C 328.14 233.67 327.89 229.58 328.68 225.64 Z" />
<path fill="#fdffff" opacity="1.00" d=" M 337.95 224.70 C 339.68 224.60 341.41 224.48 343.15 224.39 C 341.85 225.92 340.51 227.42 339.26 228.98 C 340.63 229.58 342.01 230.17 343.41 230.74 C 341.97 231.59 339.46 231.88 339.70 234.08 C 338.94 236.85 341.56 238.29 343.25 239.91 C 341.43 239.95 339.61 239.99 337.79 240.04 C 337.72 234.92 337.62 229.80 337.95 224.70 Z" />
<path fill="#fdffff" opacity="1.00" d=" M 345.80 225.03 C 348.52 224.57 351.27 224.44 354.03 224.30 C 353.07 225.59 351.71 226.67 351.15 228.21 C 350.63 232.41 351.67 236.82 349.97 240.84 C 349.69 240.06 349.11 238.49 348.83 237.71 C 349.02 234.25 349.01 230.80 349.04 227.35 C 347.95 226.58 346.87 225.81 345.80 225.03 Z" />
<path fill="#fdffff" opacity="1.00" d=" M 366.21 224.38 C 366.87 224.39 368.17 224.40 368.82 224.40 C 369.97 229.58 370.70 234.83 371.58 240.06 C 371.07 240.00 370.04 239.87 369.53 239.81 C 368.99 237.73 369.77 234.46 366.86 234.13 C 365.99 236.22 367.01 240.05 363.96 240.31 C 364.48 234.97 365.26 229.66 366.21 224.38 M 367.30 229.53 C 366.35 230.17 366.50 232.60 367.92 232.38 C 368.91 231.74 368.71 229.31 367.30 229.53 Z" />
<path fill="#fdffff" opacity="1.00" d=" M 465.62 224.44 C 467.20 224.41 468.77 224.41 470.35 224.45 C 470.64 226.19 470.89 227.94 471.08 229.71 C 469.20 229.07 468.49 227.15 467.15 225.88 C 466.20 230.60 472.45 233.08 470.85 237.79 C 470.57 240.56 467.49 239.93 465.60 239.51 C 465.34 237.83 465.12 236.14 464.97 234.45 C 466.48 235.42 467.75 236.70 468.87 238.10 C 469.26 234.72 466.73 232.40 465.16 229.75 C 464.73 227.98 465.41 226.19 465.62 224.44 Z" />
<path fill="#fdffff" opacity="1.00" d=" M 486.21 223.89 C 487.52 224.25 488.96 224.35 490.14 225.12 C 490.46 226.59 490.53 228.09 490.35 229.62 C 489.13 228.43 488.07 227.10 486.89 225.89 C 486.34 228.77 488.23 231.01 489.65 233.28 C 490.98 235.02 490.39 237.33 490.52 239.35 C 489.01 239.67 487.51 239.97 486.01 240.27 C 485.22 238.55 484.14 236.79 484.63 234.83 C 486.88 233.92 486.46 238.27 488.92 238.03 C 488.66 234.49 485.79 232.11 484.58 228.96 C 484.04 227.07 485.48 225.48 486.21 223.89 Z" />
<path fill="#fdffff" opacity="1.00" d=" M 412.26 224.95 C 414.05 224.58 415.85 224.67 417.60 225.24 C 417.82 230.01 417.93 234.80 417.43 239.55 C 415.81 239.61 414.19 239.63 412.58 239.61 C 411.62 234.78 411.93 229.82 412.26 224.95 M 413.96 234.10 C 414.03 235.58 413.76 237.63 415.59 238.15 C 415.75 234.11 416.24 229.96 415.09 226.02 C 413.39 228.37 414.06 231.40 413.96 234.10 Z" />
<path fill="#fdffff" opacity="1.00" d=" M 436.01 224.53 C 437.81 224.54 439.60 224.59 441.41 224.69 C 440.84 226.16 439.40 226.62 438.05 227.09 C 438.04 227.70 438.02 228.93 438.01 229.55 C 438.87 229.72 440.57 230.06 441.43 230.23 C 440.72 231.50 439.30 231.82 438.05 232.29 C 438.01 234.08 438.00 235.89 438.00 237.69 C 439.46 237.99 441.28 238.01 441.33 239.95 C 439.56 239.98 437.79 240.00 436.02 240.01 C 435.98 234.85 435.98 229.69 436.01 224.53 Z" />
</g>
<g id="#fafdfdff">
<path fill="#fafdfd" opacity="1.00" d=" M 375.07 224.16 C 375.53 224.16 376.47 224.15 376.94 224.15 C 377.04 228.66 376.98 233.17 377.00 237.69 C 378.47 237.98 380.27 238.02 380.34 239.95 C 378.56 239.98 376.78 239.99 375.01 240.01 C 375.01 234.72 374.95 229.44 375.07 224.16 Z" />
<path fill="#fafdfd" opacity="1.00" d=" M 451.16 223.79 C 451.61 223.96 452.50 224.31 452.95 224.48 C 453.63 228.77 453.12 233.15 453.24 237.48 C 454.61 237.94 456.12 238.33 456.61 239.90 C 454.73 239.97 452.87 240.00 451.01 240.03 C 451.03 234.61 450.85 229.20 451.16 223.79 Z" />
</g>
<g id="#fefffeff">
<path fill="#fefffe" opacity="1.00" d=" M 421.15 225.25 C 421.36 224.85 421.79 224.07 422.00 223.67 C 423.01 225.72 423.54 227.96 424.21 230.14 C 424.86 228.05 424.14 224.64 426.84 223.93 C 426.63 229.21 425.98 234.51 424.88 239.68 C 424.41 239.82 423.47 240.10 423.00 240.24 C 422.45 235.24 421.19 230.29 421.15 225.25 Z" />
</g>
<g id="#fcffffff">
<path fill="#fcffff" opacity="1.00" d=" M 430.58 224.60 L 432.42 224.60 C 432.20 229.63 433.22 234.92 431.95 239.79 L 430.81 240.44 C 430.24 235.18 430.54 229.87 430.58 224.60 Z" />
</g>
<g id="#7e7f7eff">
</g>
</svg>
